<svg width="31" height="21" viewBox="0 0 31 21" fill="none" xmlns="http://www.w3.org/2000/svg">
<rect x="1" y="1" width="29" height="19" rx="2" fill="white"/>
<rect x="0.5" y="0.5" width="30" height="20" rx="2.5" stroke="#E0F5FF" stroke-opacity="0.5"/>
<mask id="mask0_7_698" style="mask-type:alpha" maskUnits="userSpaceOnUse" x="1" y="1" width="29" height="19">
<rect x="1.25" y="1.25" width="28.5" height="18.5" rx="1.75" fill="white" stroke="white" stroke-width="0.5"/>
</mask>
<g mask="url(#mask0_7_698)">
<rect x="22" y="1" width="8" height="19" fill="#FF3131"/>
<path fill-rule="evenodd" clip-rule="evenodd" d="M1 20H9V1H1V20Z" fill="#FF3131"/>
<path fill-rule="evenodd" clip-rule="evenodd" d="M18.203 9.80305C17.9618 10.0201 17.5842 9.79969 17.6546 9.48297L18.1429 7.28571L16.7143 7.92857L16 6L15.2857 7.92857L13.8571 7.28571L14.3454 9.48297C14.4158 9.79969 14.0382 10.0201 13.797 9.80305L13.3658 9.41497C13.2391 9.30088 13.0466 9.30088 12.9199 9.41498L12.4286 9.85714L11 9.21429L11.7143 10.5L11.2753 10.8951C11.1282 11.0275 11.1282 11.2582 11.2753 11.3906L13.1429 13.0714H15.2857L15.6429 15H16.3571L16.7143 13.0714H18.8571L20.7247 11.3906C20.8718 11.2582 20.8718 11.0275 20.7247 10.8951L20.2857 10.5L21 9.21429L19.5714 9.85714L19.0801 9.41498C18.9534 9.30088 18.7609 9.30088 18.6342 9.41498L18.203 9.80305Z" fill="#FF3131"/>
</g>
</svg>
