<svg width="32" height="21" viewBox="0 0 32 21" fill="none" xmlns="http://www.w3.org/2000/svg">
<path d="M2.28559 20C1.57665 20 0.999878 19.3912 0.999878 18.6429V2.35714C0.999878 1.60881 1.57665 1 2.28559 1H29.7142C30.4231 1 30.9999 1.60881 30.9999 2.35714V18.6429C30.9999 19.3912 30.4231 20 29.7142 20H2.28559Z" fill="#003399"/>
<path d="M0.499878 18.6429C0.499878 19.6415 1.27538 20.5 2.28559 20.5H29.7142C30.7244 20.5 31.4999 19.6415 31.4999 18.6429V2.35714C31.4999 1.35849 30.7244 0.5 29.7142 0.5H2.28559C1.27538 0.5 0.499878 1.35849 0.499878 2.35714V18.6429Z" stroke="#E0F5FF" stroke-opacity="0.3"/>
<path fill-rule="evenodd" clip-rule="evenodd" d="M15.599 5.58356L16.3908 5.35166L17.1826 5.58356L16.9507 4.79178L17.1826 4L16.3908 4.23191L15.599 4L15.8309 4.79178L15.599 5.58356ZM15.599 16.7811L16.3908 16.5491L17.1826 16.7811L16.9507 15.9893L17.1826 15.1975L16.3908 15.4294L15.599 15.1975L15.8309 15.9893L15.599 16.7811ZM21.9894 10.9504L21.1976 11.1823L21.4295 10.3905L21.1976 9.59874L21.9894 9.83065L22.7812 9.59874L22.5493 10.3905L22.7812 11.1823L21.9894 10.9504ZM10 11.1823L10.7918 10.9504L11.5836 11.1823L11.3517 10.3905L11.5836 9.59874L10.7918 9.83065L10 9.59874L10.2319 10.3905L10 11.1823ZM21.2394 8.15103L20.4476 8.38294L20.6795 7.59116L20.4476 6.79937L21.2394 7.03128L22.0312 6.79937L21.7993 7.59116L22.0312 8.38294L21.2394 8.15103ZM10.75 13.9817L11.5418 13.7498L12.3336 13.9817L12.1017 13.1899L12.3336 12.3981L11.5418 12.63L10.75 12.3981L10.9819 13.1899L10.75 13.9817ZM19.1899 6.10175L18.3981 6.33365L18.63 5.54187L18.3981 4.75009L19.1899 4.982L19.9817 4.75009L19.7498 5.54187L19.9817 6.33365L19.1899 6.10175ZM12.7995 16.031L13.5913 15.7991L14.3831 16.031L14.1512 15.2392L14.3831 14.4474L13.5913 14.6793L12.7995 14.4474L13.0314 15.2392L12.7995 16.031ZM21.2394 13.7498L20.4476 13.9817L20.6795 13.1899L20.4476 12.3981L21.2394 12.63L22.0312 12.3981L21.7993 13.1899L22.0312 13.9817L21.2394 13.7498ZM10.75 8.38294L11.5418 8.15103L12.3336 8.38294L12.1017 7.59116L12.3336 6.79937L11.5418 7.03128L10.75 6.79937L10.9819 7.59116L10.75 8.38294ZM19.1899 15.7991L18.3981 16.031L18.63 15.2392L18.3981 14.4474L19.1899 14.6793L19.9817 14.4474L19.7498 15.2392L19.9817 16.031L19.1899 15.7991ZM12.7995 6.33365L13.5913 6.10175L14.3831 6.33365L14.1512 5.54187L14.3831 4.75009L13.5913 4.982L12.7995 4.75009L13.0314 5.54187L12.7995 6.33365Z" fill="#FFD429"/>
</svg>
