<svg width="31" height="21" viewBox="0 0 31 21" fill="none" xmlns="http://www.w3.org/2000/svg">
<path d="M2.63345 19.5682C1.95778 19.5682 1.40808 18.987 1.40808 18.2727V2.72728C1.40808 2.01296 1.95778 1.43182 2.63345 1.43182H28.7746C29.4503 1.43182 30 2.01296 30 2.72728V18.2727C30 18.987 29.4503 19.5682 28.7746 19.5682H2.63345Z" fill="#0A17A7"/>
<path d="M0.908081 18.2727C0.908081 19.2366 1.6558 20.0682 2.63345 20.0682H28.7746C29.7523 20.0682 30.5 19.2366 30.5 18.2727V2.72728C30.5 1.76339 29.7523 0.931824 28.7746 0.931824H2.63345C1.6558 0.931824 0.908081 1.76339 0.908081 2.72728V18.2727Z" stroke="#E0F5FF" stroke-opacity="0.3"/>
<mask id="mask0_7_712" style="mask-type:alpha" maskUnits="userSpaceOnUse" x="1" y="1" width="29" height="19">
<path d="M2.63345 19.5682C1.95778 19.5682 1.40808 18.987 1.40808 18.2727V2.72728C1.40808 2.01296 1.95778 1.43182 2.63345 1.43182H28.7746C29.4503 1.43182 30 2.01296 30 2.72728V18.2727C30 18.987 29.4503 19.5682 28.7746 19.5682H2.63345Z" fill="#0A17A7"/>
</mask>
<g mask="url(#mask0_7_712)">
<path d="M0.999878 -2.05265H-1.20541L0.468969 -0.617469L11.6051 8.92782V11.3959L0.52571 19.3098L0.184088 19.5538V19.9737V21.6052V23.0771L1.43225 22.297L14.2865 14.2631H17.0542L28.1218 22.1686C28.3517 22.3328 28.6272 22.421 28.9096 22.421C30.168 22.421 30.7471 20.8555 29.7917 20.0366L19.763 11.4406V8.97243L30.5008 1.30257C30.9296 0.996301 31.1841 0.501815 31.1841 -0.0251027V-1.23686V-2.70875L29.9359 -1.92865L17.0817 6.10524H14.3139L3.10562 -1.9007L2.89289 -2.05265H2.63146H0.999878Z" fill="#DB1E36" stroke="white" stroke-width="1.63158"/>
<path fill-rule="evenodd" clip-rule="evenodd" d="M0.999878 6.92103V13.4473H12.4209V21.6052C12.4209 22.5063 13.1514 23.2368 14.0525 23.2368H17.3157C18.2168 23.2368 18.9472 22.5063 18.9472 21.6052V13.4473H30.3683C31.2694 13.4473 31.9999 12.7169 31.9999 11.8158V8.55261C31.9999 7.65151 31.2694 6.92103 30.3683 6.92103H18.9472V-1.23686H12.4209V6.92103H0.999878Z" fill="url(#paint0_linear_7_712)"/>
<path fill-rule="evenodd" clip-rule="evenodd" d="M0.999878 8.55261H14.0525V6.92103V-1.23686H17.3157V6.92103V8.55261H30.3683V11.8158H17.3157V13.4473V21.6052H14.0525V13.4473V11.8158H0.999878V8.55261Z" fill="#DB1E36"/>
</g>
<defs>
<linearGradient id="paint0_linear_7_712" x1="0.999878" y1="-1.23686" x2="0.999878" y2="23.2368" gradientUnits="userSpaceOnUse">
<stop stop-color="white"/>
<stop offset="1" stop-color="#F0F0F0"/>
</linearGradient>
</defs>
</svg>
