<svg width="31" height="21" viewBox="0 0 31 21" fill="none" xmlns="http://www.w3.org/2000/svg">
<rect x="1" y="1" width="29" height="19" rx="2" fill="white"/>
<rect x="0.5" y="0.5" width="30" height="20" rx="2.5" stroke="#E0F5FF" stroke-opacity="0.5"/>
<mask id="mask0_7_728" style="mask-type:alpha" maskUnits="userSpaceOnUse" x="1" y="1" width="29" height="19">
<rect x="1.25" y="1.25" width="28.5" height="18.5" rx="1.75" fill="white" stroke="white" stroke-width="0.5"/>
</mask>
<g mask="url(#mask0_7_728)">
<rect x="21" y="1" width="9.33333" height="20" fill="#E3283E"/>
<path fill-rule="evenodd" clip-rule="evenodd" d="M1.09998 20.1429H10.1V0.857147H1.09998V20.1429Z" fill="#128A60"/>
<path d="M14.9982 12.0649L15.3327 11.4882L14.9982 12.0649ZM15.2402 12.9761L15.8168 13.3106L15.8168 13.3106L15.2402 12.9761ZM14.329 13.2181L14.6636 12.6415H14.6636L14.329 13.2181ZM17.794 13.1431L18.1532 13.7047L17.794 13.1431ZM16.8732 12.9407L16.3116 13.2999H16.3116L16.8732 12.9407ZM17.0756 12.0198L17.4348 12.5815L17.0756 12.0198ZM14.6666 10.3333C14.6666 9.59696 14.0697 9.00001 13.3333 9.00001V10.3333H14.6666ZM15.3327 11.4882C14.9319 11.2556 14.6666 10.8249 14.6666 10.3333H13.3333C13.3333 11.3188 13.8679 12.1798 14.6636 12.6415L15.3327 11.4882ZM15.8168 13.3106C16.1864 12.6737 15.9697 11.8578 15.3327 11.4882L14.6636 12.6415L14.6636 12.6415L15.8168 13.3106ZM13.9944 13.7947C14.6313 14.1643 15.4473 13.9476 15.8168 13.3106L14.6636 12.6415L13.9944 13.7947ZM12 10.3333C12 11.8139 12.805 13.1046 13.9944 13.7947L14.6636 12.6415C13.868 12.1799 13.3333 11.3189 13.3333 10.3333H12ZM13.3333 9.00001C12.5969 9.00001 12 9.59696 12 10.3333H13.3333V9.00001ZM20 10.3333C20 9.59696 19.403 9.00001 18.6666 9.00001V10.3333H20ZM18.1532 13.7047C19.2607 12.9964 20 11.7517 20 10.3333H18.6666C18.6666 11.2777 18.1757 12.1076 17.4348 12.5815L18.1532 13.7047ZM16.3116 13.2999C16.7083 13.9202 17.5329 14.1015 18.1532 13.7047L17.4348 12.5815V12.5815L16.3116 13.2999ZM16.7164 11.4582C16.0961 11.855 15.9148 12.6795 16.3116 13.2999L17.4348 12.5815L16.7164 11.4582ZM17.3333 10.3333C17.3333 10.8045 17.0899 11.2193 16.7164 11.4582L17.4348 12.5815C18.1758 12.1075 18.6666 11.2775 18.6666 10.3333H17.3333ZM18.6666 9.00001C17.9302 9.00001 17.3333 9.59696 17.3333 10.3333H18.6666V9.00001Z" fill="#8C9157"/>
<ellipse cx="16" cy="9.66667" rx="1.33333" ry="2" fill="#C59262"/>
</g>
</svg>
