<svg width="32" height="21" viewBox="0 0 32 21" fill="none" xmlns="http://www.w3.org/2000/svg">
<rect x="1" y="1" width="30" height="19" rx="2" fill="white"/>
<rect x="0.5" y="0.5" width="31" height="20" rx="2.5" stroke="#E0F5FF" stroke-opacity="0.5"/>
<mask id="mask0_7_774" style="mask-type:alpha" maskUnits="userSpaceOnUse" x="1" y="1" width="30" height="19">
<rect x="1" y="1" width="30" height="19" rx="2" fill="white"/>
</mask>
<g mask="url(#mask0_7_774)">
<path fill-rule="evenodd" clip-rule="evenodd" d="M31 1H1V2.26667H31V1ZM31 3.53335H1V4.80002H31V3.53335ZM1 6.06665H31V7.33331H1V6.06665ZM31 8.6H1V9.86667H31V8.6ZM1 11.1334H31V12.4H1V11.1334ZM31 13.6666H1V14.9333H31V13.6666ZM1 16.2H31V17.4667H1V16.2ZM31 18.7334H1V20H31V18.7334Z" fill="#D02F44"/>
<rect x="1" y="1" width="11.4" height="8.86667" fill="#46467F"/>
<g filter="url(#filter0_d_7_774)">
<path fill-rule="evenodd" clip-rule="evenodd" d="M5.43335 3.53331C5.78313 3.53331 6.06668 3.24976 6.06668 2.89998C6.06668 2.5502 5.78313 2.26665 5.43335 2.26665C5.08356 2.26665 4.80001 2.5502 4.80001 2.89998C4.80001 3.24976 5.08356 3.53331 5.43335 3.53331ZM2.89995 3.53333C3.24973 3.53333 3.53328 3.24978 3.53328 2.9C3.53328 2.55022 3.24973 2.26666 2.89995 2.26666C2.55017 2.26666 2.26661 2.55022 2.26661 2.9C2.26661 3.24978 2.55017 3.53333 2.89995 3.53333ZM8.59986 2.89998C8.59986 3.24976 8.3163 3.53331 7.96652 3.53331C7.61674 3.53331 7.33319 3.24976 7.33319 2.89998C7.33319 2.5502 7.61674 2.26665 7.96652 2.26665C8.3163 2.26665 8.59986 2.5502 8.59986 2.89998ZM10.4999 3.53331C10.8497 3.53331 11.1333 3.24976 11.1333 2.89998C11.1333 2.5502 10.8497 2.26665 10.4999 2.26665C10.1502 2.26665 9.8666 2.5502 9.8666 2.89998C9.8666 3.24976 10.1502 3.53331 10.4999 3.53331ZM4.79986 4.16663C4.79986 4.51641 4.5163 4.79996 4.16652 4.79996C3.81674 4.79996 3.53319 4.51641 3.53319 4.16663C3.53319 3.81685 3.81674 3.53329 4.16652 3.53329C4.5163 3.53329 4.79986 3.81685 4.79986 4.16663ZM6.69993 4.79996C7.04972 4.79996 7.33327 4.51641 7.33327 4.16663C7.33327 3.81685 7.04972 3.53329 6.69993 3.53329C6.35015 3.53329 6.0666 3.81685 6.0666 4.16663C6.0666 4.51641 6.35015 4.79996 6.69993 4.79996ZM9.86668 4.16663C9.86668 4.51641 9.58313 4.79996 9.23335 4.79996C8.88357 4.79996 8.60001 4.51641 8.60001 4.16663C8.60001 3.81685 8.88357 3.53329 9.23335 3.53329C9.58313 3.53329 9.86668 3.81685 9.86668 4.16663ZM10.4999 6.06667C10.8497 6.06667 11.1333 5.78311 11.1333 5.43333C11.1333 5.08355 10.8497 4.8 10.4999 4.8C10.1502 4.8 9.8666 5.08355 9.8666 5.43333C9.8666 5.78311 10.1502 6.06667 10.4999 6.06667ZM8.59986 5.43333C8.59986 5.78311 8.3163 6.06667 7.96652 6.06667C7.61674 6.06667 7.33319 5.78311 7.33319 5.43333C7.33319 5.08355 7.61674 4.8 7.96652 4.8C8.3163 4.8 8.59986 5.08355 8.59986 5.43333ZM5.43335 6.06667C5.78313 6.06667 6.06668 5.78311 6.06668 5.43333C6.06668 5.08355 5.78313 4.8 5.43335 4.8C5.08356 4.8 4.80001 5.08355 4.80001 5.43333C4.80001 5.78311 5.08356 6.06667 5.43335 6.06667ZM3.53327 5.43333C3.53327 5.78311 3.24972 6.06667 2.89993 6.06667C2.55015 6.06667 2.2666 5.78311 2.2666 5.43333C2.2666 5.08355 2.55015 4.8 2.89993 4.8C3.24972 4.8 3.53327 5.08355 3.53327 5.43333ZM4.16652 7.33331C4.5163 7.33331 4.79986 7.04976 4.79986 6.69998C4.79986 6.3502 4.5163 6.06665 4.16652 6.06665C3.81674 6.06665 3.53319 6.3502 3.53319 6.69998C3.53319 7.04976 3.81674 7.33331 4.16652 7.33331ZM7.33327 6.69998C7.33327 7.04976 7.04972 7.33331 6.69993 7.33331C6.35015 7.33331 6.0666 7.04976 6.0666 6.69998C6.0666 6.3502 6.35015 6.06665 6.69993 6.06665C7.04972 6.06665 7.33327 6.3502 7.33327 6.69998ZM9.23335 7.33331C9.58313 7.33331 9.86668 7.04976 9.86668 6.69998C9.86668 6.3502 9.58313 6.06665 9.23335 6.06665C8.88357 6.06665 8.60001 6.3502 8.60001 6.69998C8.60001 7.04976 8.88357 7.33331 9.23335 7.33331ZM11.1333 7.96663C11.1333 8.31641 10.8497 8.59996 10.4999 8.59996C10.1502 8.59996 9.8666 8.31641 9.8666 7.96663C9.8666 7.61685 10.1502 7.33329 10.4999 7.33329C10.8497 7.33329 11.1333 7.61685 11.1333 7.96663ZM7.96652 8.59996C8.3163 8.59996 8.59986 8.31641 8.59986 7.96663C8.59986 7.61685 8.3163 7.33329 7.96652 7.33329C7.61674 7.33329 7.33319 7.61685 7.33319 7.96663C7.33319 8.31641 7.61674 8.59996 7.96652 8.59996ZM6.06668 7.96663C6.06668 8.31641 5.78313 8.59996 5.43335 8.59996C5.08356 8.59996 4.80001 8.31641 4.80001 7.96663C4.80001 7.61685 5.08356 7.33329 5.43335 7.33329C5.78313 7.33329 6.06668 7.61685 6.06668 7.96663ZM2.89993 8.59996C3.24972 8.59996 3.53327 8.31641 3.53327 7.96663C3.53327 7.61685 3.24972 7.33329 2.89993 7.33329C2.55015 7.33329 2.2666 7.61685 2.2666 7.96663C2.2666 8.31641 2.55015 8.59996 2.89993 8.59996Z" fill="url(#paint0_linear_7_774)"/>
</g>
</g>
<defs>
<filter id="filter0_d_7_774" x="2.2666" y="2.26665" width="8.8667" height="7.33331" filterUnits="userSpaceOnUse" color-interpolation-filters="sRGB">
<feFlood flood-opacity="0" result="BackgroundImageFix"/>
<feColorMatrix in="SourceAlpha" type="matrix" values="0 0 0 0 0 0 0 0 0 0 0 0 0 0 0 0 0 0 127 0" result="hardAlpha"/>
<feOffset dy="1"/>
<feColorMatrix type="matrix" values="0 0 0 0 0 0 0 0 0 0 0 0 0 0 0 0 0 0 0.06 0"/>
<feBlend mode="normal" in2="BackgroundImageFix" result="effect1_dropShadow_7_774"/>
<feBlend mode="normal" in="SourceGraphic" in2="effect1_dropShadow_7_774" result="shape"/>
</filter>
<linearGradient id="paint0_linear_7_774" x1="2.2666" y1="2.26665" x2="2.2666" y2="8.59998" gradientUnits="userSpaceOnUse">
<stop stop-color="white"/>
<stop offset="1" stop-color="#F0F0F0"/>
</linearGradient>
</defs>
</svg>
